# xmcd
#
# Track frame offsets:
#	150
#	38002
#	63654
#	73838
#	103176
#	127261
#	156202
#	180755
#	194510
#	206497
#	223620
#
# Disc length: 3395 seconds
#
# Revision: 1
# Processed by: cddbd v1.4PL0 Copyright (c) Steve Scherf et al.
# Submitted via: audiograbber 1.82.01
#
DISCID=a70d410b
DTITLE=Majida El Roumy - Rasa2el
DYEAR=1900
DGENRE=
TTITLE0=Samra2 El Nil
TTITLE1=Lawn Ma3i El Ayam
TTITLE2=Hobak
TTITLE3=Chou3oub Min El 3oshak
TTITLE4=Chou Bheb Ishar
TTITLE5=3edak 
TTITLE6=Min Lamma Iltakayna
TTITLE7=Baddi Illak
TTITLE8=Mimi
TTITLE9=Ma Rah Tokhlas El Hkayeh
TTITLE10=Kana
EXTD=
EXTT0=
EXTT1=
EXTT2=
EXTT3=
EXTT4=
EXTT5=
EXTT6=
EXTT7=
EXTT8=
EXTT9=
EXTT10=
PLAYORDER=
